<svg width="41" height="42" viewBox="0 0 41 42" fill="none" xmlns="http://www.w3.org/2000/svg">
<path opacity="0.5" d="M40.0652 0.885361L30.2601 38.1619C30.2102 38.3311 30.0108 38.3819 29.8945 38.2634L23.3301 31.5797L28.2492 12.8991C28.2991 12.7299 28.1495 12.5776 27.9833 12.6284L9.63617 17.637L3.10498 10.9871C2.98865 10.8686 3.03851 10.6656 3.20469 10.6148L39.7993 0.614628C39.9655 0.580787 40.115 0.733074 40.0652 0.885361Z" fill="#00B37E"/>
<path opacity="0.5" d="M23.3297 31.5794L20.8037 41.2242C20.7538 41.3934 20.5544 41.4442 20.4381 41.3257L0.0634003 20.5977C-0.0529313 20.4793 -0.00307518 20.2762 0.163113 20.2255L9.63583 17.6366L23.3297 31.5794Z" fill="#00B37E"/>
<path d="M28.2484 12.8986L23.3292 31.5792L9.63533 17.6364L27.9825 12.6278C28.1487 12.5771 28.2982 12.7294 28.2484 12.8986Z" fill="#00B37E"/>
</svg>
