
<svg width="192" height="192" viewBox="0 0 192 192" fill="none" xmlns="http://www.w3.org/2000/svg">
    <g clip-path="url(#clip0_42354_583)">
        <path d="M96 141C120.853 141 141 120.853 141 96C141 71.1472 120.853 51 96 51C71.1472 51 51 71.1472 51 96C51 120.853 71.1472 141 96 141Z" fill="url(#paint0_radial_42354_583)" stroke="#FFC830" stroke-width="18" stroke-linecap="round" stroke-linejoin="round"/>
        <path d="M96 21V9" stroke="#FFC830" stroke-width="18" stroke-linecap="round" stroke-linejoin="round"/>
        <path d="M149.025 42.975L157.5 34.5" stroke="#FFC830" stroke-width="18" stroke-linecap="round" stroke-linejoin="round"/>
        <path d="M171 96H183" stroke="#FFC830" stroke-width="18" stroke-linecap="round" stroke-linejoin="round"/>
        <path d="M149.025 149.025L157.5 157.5" stroke="#FFC830" stroke-width="18" stroke-linecap="round" stroke-linejoin="round"/>
        <path d="M96 171V183" stroke="#FFC830" stroke-width="18" stroke-linecap="round" stroke-linejoin="round"/>
        <path d="M42.975 149.025L34.5 157.5" stroke="#FFC830" stroke-width="18" stroke-linecap="round" stroke-linejoin="round"/>
        <path d="M21 96H9" stroke="#FFC830" stroke-width="18" stroke-linecap="round" stroke-linejoin="round"/>
        <path d="M43.475 43.475L35 35" stroke="#FFC830" stroke-width="18" stroke-linecap="round" stroke-linejoin="round"/>
    </g>
    <defs>
        <radialGradient id="paint0_radial_42354_583" cx="0" cy="0" r="1" gradientUnits="userSpaceOnUse" gradientTransform="translate(96 96) rotate(-78.6901) scale(45.8912)">
            <stop offset="0.306573" stop-color="#F8CF60"/>
            <stop offset="1" stop-color="#FFC830"/>
        </radialGradient>
        <clipPath id="clip0_42354_583">
            <rect width="192" height="192" fill="white"/>
        </clipPath>
    </defs>
</svg>
