<svg width="185" height="44" viewBox="0 0 185 44" fill="none" xmlns="http://www.w3.org/2000/svg">
<path opacity="0.5" d="M40.0652 1.88536L30.2601 39.1619C30.2102 39.3311 30.0108 39.3819 29.8945 39.2634L23.3301 32.5797L28.2492 13.8991C28.2991 13.7299 28.1495 13.5776 27.9833 13.6284L9.63617 18.637L3.10498 11.9871C2.98865 11.8686 3.03851 11.6656 3.20469 11.6148L39.7993 1.61463C39.9655 1.58079 40.115 1.73307 40.0652 1.88536Z" fill="#00B37E"/>
<path opacity="0.5" d="M23.3297 32.5794L20.8037 42.2242C20.7538 42.3934 20.5544 42.4442 20.4381 42.3257L0.0634003 21.5977C-0.0529313 21.4793 -0.00307518 21.2762 0.163113 21.2255L9.63583 18.6366L23.3297 32.5794Z" fill="#00B37E"/>
<path d="M28.2484 13.8986L23.3292 32.5792L9.63533 18.6364L27.9825 13.6278C28.1487 13.5771 28.2982 13.7294 28.2484 13.8986Z" fill="#00B37E"/>
<path d="M61.675 10.8104V29H57.9397V10.8104H61.675ZM80.1269 19.4805V20.3425C80.1269 21.725 79.9396 22.966 79.5648 24.0653C79.19 25.1647 78.6611 26.1017 77.9782 26.8762C77.2952 27.6424 76.479 28.2296 75.5296 28.6377C74.5885 29.0458 73.5432 29.2499 72.3939 29.2499C71.2529 29.2499 70.2076 29.0458 69.2582 28.6377C68.3171 28.2296 67.5009 27.6424 66.8096 26.8762C66.1183 26.1017 65.5811 25.1647 65.198 24.0653C64.8232 22.966 64.6358 21.725 64.6358 20.3425V19.4805C64.6358 18.0896 64.8232 16.8486 65.198 15.7576C65.5728 14.6582 66.1017 13.7213 66.7846 12.9467C67.4759 12.1722 68.2921 11.5808 69.2332 11.1727C70.1827 10.7646 71.2279 10.5606 72.3689 10.5606C73.5182 10.5606 74.5635 10.7646 75.5046 11.1727C76.4541 11.5808 77.2703 12.1722 77.9532 12.9467C78.6445 13.7213 79.1775 14.6582 79.5523 15.7576C79.9354 16.8486 80.1269 18.0896 80.1269 19.4805ZM76.3416 20.3425V19.4555C76.3416 18.4894 76.2542 17.6398 76.0793 16.9069C75.9044 16.174 75.6462 15.5577 75.3047 15.058C74.9632 14.5583 74.5468 14.1835 74.0554 13.9336C73.564 13.6755 73.0019 13.5464 72.3689 13.5464C71.7359 13.5464 71.1738 13.6755 70.6824 13.9336C70.1993 14.1835 69.787 14.5583 69.4456 15.058C69.1124 15.5577 68.8584 16.174 68.6835 16.9069C68.5086 17.6398 68.4212 18.4894 68.4212 19.4555V20.3425C68.4212 21.3002 68.5086 22.1498 68.6835 22.891C68.8584 23.6239 69.1166 24.2444 69.4581 24.7524C69.7995 25.2521 70.216 25.6311 70.7074 25.8893C71.1987 26.1475 71.7609 26.2766 72.3939 26.2766C73.0269 26.2766 73.589 26.1475 74.0804 25.8893C74.5718 25.6311 74.9841 25.2521 75.3172 24.7524C75.6504 24.2444 75.9044 23.6239 76.0793 22.891C76.2542 22.1498 76.3416 21.3002 76.3416 20.3425ZM84.5369 10.8104H87.7101L92.3824 24.1653L97.0547 10.8104H100.228L93.6567 29H91.1082L84.5369 10.8104ZM82.8254 10.8104H85.9861L86.5608 23.828V29H82.8254V10.8104ZM98.7788 10.8104H101.952V29H98.2041V23.828L98.7788 10.8104ZM112.308 25.9517V19.9302C112.308 19.4971 112.238 19.1265 112.096 18.8183C111.955 18.5019 111.734 18.2562 111.434 18.0813C111.142 17.9064 110.764 17.8189 110.297 17.8189C109.897 17.8189 109.552 17.8897 109.26 18.0313C108.969 18.1645 108.744 18.3603 108.586 18.6185C108.427 18.8683 108.348 19.164 108.348 19.5054H104.75C104.75 18.9308 104.884 18.3853 105.15 17.8689C105.417 17.3525 105.804 16.8986 106.312 16.5072C106.82 16.1074 107.424 15.7951 108.123 15.5702C108.831 15.3453 109.623 15.2329 110.497 15.2329C111.546 15.2329 112.479 15.4078 113.295 15.7576C114.112 16.1074 114.753 16.6321 115.219 17.3317C115.694 18.0313 115.931 18.9058 115.931 19.9552V25.7394C115.931 26.4806 115.977 27.0886 116.069 27.5633C116.16 28.0297 116.294 28.4378 116.469 28.7876V29H112.833C112.658 28.6335 112.525 28.1755 112.433 27.6258C112.35 27.0678 112.308 26.5098 112.308 25.9517ZM112.783 20.7672L112.808 22.8036H110.797C110.322 22.8036 109.91 22.8577 109.56 22.966C109.21 23.0742 108.923 23.2283 108.698 23.4282C108.473 23.6198 108.307 23.8446 108.198 24.1028C108.098 24.361 108.048 24.6442 108.048 24.9523C108.048 25.2605 108.119 25.5395 108.261 25.7893C108.402 26.0309 108.606 26.2224 108.873 26.364C109.139 26.4973 109.452 26.5639 109.81 26.5639C110.351 26.5639 110.822 26.4556 111.222 26.2391C111.621 26.0225 111.93 25.756 112.146 25.4395C112.371 25.1231 112.488 24.8232 112.496 24.5401L113.445 26.0642C113.312 26.4057 113.129 26.7596 112.896 27.1261C112.671 27.4925 112.383 27.8382 112.034 28.163C111.684 28.4795 111.263 28.7418 110.772 28.95C110.28 29.1499 109.697 29.2499 109.023 29.2499C108.165 29.2499 107.386 29.0791 106.687 28.7377C105.995 28.3879 105.446 27.909 105.038 27.301C104.638 26.6847 104.438 25.9851 104.438 25.2022C104.438 24.4943 104.571 23.8654 104.838 23.3158C105.104 22.7661 105.496 22.3038 106.012 21.9291C106.537 21.5459 107.191 21.2586 107.973 21.0671C108.756 20.8672 109.664 20.7672 110.697 20.7672H112.783ZM122.228 18.3686V29H118.63V15.4828H122.003L122.228 18.3686ZM121.703 21.7666H120.729C120.729 20.7672 120.858 19.8677 121.116 19.0682C121.374 18.2603 121.736 17.5732 122.203 17.0069C122.669 16.4322 123.223 15.995 123.864 15.6951C124.514 15.387 125.239 15.2329 126.038 15.2329C126.671 15.2329 127.25 15.3245 127.775 15.5077C128.299 15.691 128.749 15.9825 129.124 16.3822C129.507 16.782 129.798 17.3109 129.998 17.9688C130.207 18.6268 130.311 19.4305 130.311 20.3799V29H126.688V20.3675C126.688 19.7678 126.604 19.3014 126.438 18.9683C126.271 18.6351 126.026 18.4019 125.701 18.2687C125.384 18.1271 124.993 18.0563 124.526 18.0563C124.043 18.0563 123.623 18.1521 123.265 18.3436C122.915 18.5352 122.623 18.8017 122.39 19.1432C122.165 19.4763 121.995 19.8677 121.878 20.3175C121.761 20.7672 121.703 21.2503 121.703 21.7666ZM140.342 25.9517V19.9302C140.342 19.4971 140.272 19.1265 140.13 18.8183C139.988 18.5019 139.768 18.2562 139.468 18.0813C139.176 17.9064 138.797 17.8189 138.331 17.8189C137.931 17.8189 137.586 17.8897 137.294 18.0313C137.003 18.1645 136.778 18.3603 136.62 18.6185C136.461 18.8683 136.382 19.164 136.382 19.5054H132.784C132.784 18.9308 132.918 18.3853 133.184 17.8689C133.451 17.3525 133.838 16.8986 134.346 16.5072C134.854 16.1074 135.458 15.7951 136.157 15.5702C136.865 15.3453 137.656 15.2329 138.531 15.2329C139.58 15.2329 140.513 15.4078 141.329 15.7576C142.146 16.1074 142.787 16.6321 143.253 17.3317C143.728 18.0313 143.965 18.9058 143.965 19.9552V25.7394C143.965 26.4806 144.011 27.0886 144.103 27.5633C144.194 28.0297 144.328 28.4378 144.503 28.7876V29H140.867C140.692 28.6335 140.559 28.1755 140.467 27.6258C140.384 27.0678 140.342 26.5098 140.342 25.9517ZM140.817 20.7672L140.842 22.8036H138.831C138.356 22.8036 137.944 22.8577 137.594 22.966C137.244 23.0742 136.957 23.2283 136.732 23.4282C136.507 23.6198 136.341 23.8446 136.232 24.1028C136.132 24.361 136.082 24.6442 136.082 24.9523C136.082 25.2605 136.153 25.5395 136.295 25.7893C136.436 26.0309 136.64 26.2224 136.907 26.364C137.173 26.4973 137.486 26.5639 137.844 26.5639C138.385 26.5639 138.856 26.4556 139.256 26.2391C139.655 26.0225 139.963 25.756 140.18 25.4395C140.405 25.1231 140.521 24.8232 140.53 24.5401L141.479 26.0642C141.346 26.4057 141.163 26.7596 140.93 27.1261C140.705 27.4925 140.417 27.8382 140.068 28.163C139.718 28.4795 139.297 28.7418 138.806 28.95C138.314 29.1499 137.731 29.2499 137.057 29.2499C136.199 29.2499 135.42 29.0791 134.721 28.7377C134.029 28.3879 133.48 27.909 133.072 27.301C132.672 26.6847 132.472 25.9851 132.472 25.2022C132.472 24.4943 132.605 23.8654 132.872 23.3158C133.138 22.7661 133.53 22.3038 134.046 21.9291C134.571 21.5459 135.225 21.2586 136.007 21.0671C136.79 20.8672 137.698 20.7672 138.731 20.7672H140.817ZM155.296 15.4828H158.557V28.5503C158.557 29.7829 158.282 30.8281 157.732 31.686C157.191 32.5521 156.433 33.2059 155.459 33.6473C154.484 34.0971 153.352 34.3219 152.061 34.3219C151.494 34.3219 150.895 34.247 150.262 34.0971C149.637 33.9472 149.037 33.714 148.463 33.3975C147.896 33.081 147.422 32.6812 147.039 32.1982L148.625 30.0744C149.042 30.5574 149.525 30.9322 150.074 31.1987C150.624 31.4736 151.232 31.611 151.898 31.611C152.548 31.611 153.098 31.4902 153.547 31.2487C153.997 31.0155 154.343 30.6699 154.584 30.2118C154.826 29.7621 154.947 29.2165 154.947 28.5752V18.606L155.296 15.4828ZM146.202 22.4038V22.1414C146.202 21.1087 146.326 20.1717 146.576 19.3305C146.835 18.481 147.197 17.7523 147.663 17.1443C148.138 16.5363 148.713 16.0658 149.387 15.7326C150.062 15.3995 150.824 15.2329 151.673 15.2329C152.573 15.2329 153.327 15.3995 153.935 15.7326C154.543 16.0658 155.042 16.5405 155.434 17.1568C155.825 17.7648 156.129 18.4852 156.346 19.3181C156.571 20.1426 156.746 21.0462 156.87 22.029V22.6037C156.746 23.5448 156.558 24.4193 156.308 25.2272C156.058 26.035 155.729 26.743 155.321 27.3509C154.913 27.9506 154.405 28.417 153.797 28.7501C153.198 29.0833 152.481 29.2499 151.648 29.2499C150.816 29.2499 150.062 29.0791 149.387 28.7377C148.721 28.3962 148.15 27.9173 147.676 27.301C147.201 26.6847 146.835 25.9601 146.576 25.1272C146.326 24.2944 146.202 23.3866 146.202 22.4038ZM149.799 22.1414V22.4038C149.799 22.9618 149.854 23.4823 149.962 23.9654C150.07 24.4484 150.237 24.8774 150.462 25.2521C150.695 25.6186 150.982 25.9059 151.324 26.1142C151.673 26.314 152.086 26.414 152.56 26.414C153.218 26.414 153.756 26.2766 154.172 26.0017C154.588 25.7185 154.901 25.3313 155.109 24.8399C155.317 24.3485 155.438 23.7822 155.471 23.1409V21.5043C155.455 20.9796 155.384 20.509 155.259 20.0926C155.134 19.6679 154.959 19.3056 154.734 19.0057C154.509 18.7059 154.218 18.4727 153.86 18.3061C153.502 18.1396 153.077 18.0563 152.585 18.0563C152.111 18.0563 151.698 18.1645 151.349 18.3811C151.007 18.5893 150.72 18.8766 150.487 19.2431C150.262 19.6096 150.091 20.0426 149.974 20.5424C149.858 21.0337 149.799 21.5668 149.799 22.1414ZM167.577 29.2499C166.527 29.2499 165.586 29.0833 164.753 28.7501C163.921 28.4087 163.213 27.9381 162.63 27.3385C162.055 26.7388 161.614 26.0434 161.305 25.2521C160.997 24.4526 160.843 23.6031 160.843 22.7036V22.2039C160.843 21.1795 160.989 20.2425 161.28 19.393C161.572 18.5435 161.988 17.8064 162.53 17.1818C163.079 16.5571 163.746 16.0782 164.529 15.7451C165.311 15.4036 166.194 15.2329 167.177 15.2329C168.135 15.2329 168.984 15.3911 169.726 15.7076C170.467 16.0241 171.087 16.4739 171.587 17.0569C172.095 17.6398 172.478 18.3394 172.736 19.1556C172.995 19.9635 173.124 20.863 173.124 21.8541V23.3532H162.38V20.9546H169.588V20.6798C169.588 20.1801 169.497 19.7345 169.313 19.343C169.138 18.9433 168.872 18.6268 168.514 18.3936C168.156 18.1604 167.698 18.0438 167.14 18.0438C166.665 18.0438 166.257 18.1479 165.915 18.3561C165.574 18.5643 165.295 18.8558 165.078 19.2306C164.87 19.6054 164.712 20.0468 164.603 20.5548C164.504 21.0546 164.454 21.6042 164.454 22.2039V22.7036C164.454 23.245 164.529 23.7447 164.678 24.2028C164.837 24.6608 165.057 25.0564 165.341 25.3896C165.632 25.7227 165.982 25.9809 166.39 26.1641C166.806 26.3474 167.277 26.439 167.802 26.439C168.451 26.439 169.055 26.314 169.613 26.0642C170.179 25.806 170.667 25.4187 171.075 24.9024L172.824 26.8013C172.541 27.2094 172.153 27.6008 171.662 27.9756C171.179 28.3504 170.596 28.6585 169.913 28.9001C169.23 29.1333 168.451 29.2499 167.577 29.2499ZM178.77 18.4311V29H175.172V15.4828H178.558L178.77 18.4311ZM182.843 15.3953L182.781 18.7309C182.606 18.7059 182.393 18.6851 182.143 18.6684C181.902 18.6434 181.681 18.6309 181.481 18.6309C180.973 18.6309 180.532 18.6976 180.157 18.8308C179.791 18.9558 179.482 19.1432 179.233 19.393C178.991 19.6429 178.808 19.9469 178.683 20.305C178.566 20.6631 178.5 21.0712 178.483 21.5293L177.758 21.3044C177.758 20.4299 177.846 19.6262 178.021 18.8933C178.196 18.1521 178.45 17.5066 178.783 16.9569C179.124 16.4072 179.541 15.9825 180.032 15.6826C180.524 15.3828 181.086 15.2329 181.719 15.2329C181.919 15.2329 182.123 15.2496 182.331 15.2829C182.539 15.3079 182.71 15.3453 182.843 15.3953Z" fill="#E1E1E6"/>
</svg>
